<svg xmlns="http://www.w3.org/2000/svg" version="1.1" xmlns:xlink="http://www.w3.org/1999/xlink" xmlns:svgjs="http://svgjs.dev/svgjs" id="BgenPttrnSvgRootPreview" width="100%" height="100%"><defs><pattern x="0" y="0" width="1" height="1" patternUnits="userSpaceOnUse" id="BgenPttrnLayer1"><g id="PatternRootContent1"><g id="BgenPttrnLayer1background"><rect width="1" height="1" id="BgenPttrnBackground1" class="color_1 fill_color_1" fill="#8591a8"></rect></g></g></pattern><pattern x="0" y="0" width="85" height="144" patternUnits="userSpaceOnUse" id="BgenPttrnLayer2" patternTransform="matrix(0.6,0,0,0.6,0,0)"><g id="PatternRootContent2"><g id="BgenPttrnLayer2Element5"><use xlink:href="#BgenPttrnElement5" x="32.52769470214844" y="-81.80555725097656" transform="translate(85, -36) scale(1) translate(-85, 36) rotate(97, 85, -36)"></use><use xlink:href="#BgenPttrnElement5" x="-52.47230529785156" y="-81.80555725097656" transform="translate(0, -36) scale(1) translate(0, 36) rotate(97, 0, -36)"></use><use xlink:href="#BgenPttrnElement5" x="-9.972305297851562" y="-9.805557250976562" transform="translate(42.5, 36) scale(1) translate(-42.5, -36) rotate(97, 42.5, 36)"></use><use xlink:href="#BgenPttrnElement5" x="-94.97230529785156" y="-9.805557250976562" transform="translate(-42.5, 36) scale(1) translate(42.5, -36) rotate(97, -42.5, 36)"></use><use xlink:href="#BgenPttrnElement5" x="75.02769470214844" y="-9.805557250976562" transform="translate(127.5, 36) scale(1) translate(-127.5, -36) rotate(97, 127.5, 36)"></use><use xlink:href="#BgenPttrnElement5" x="32.52769470214844" y="62.19444274902344" transform="translate(85, 108) scale(1) translate(-85, -108) rotate(97, 85, 108)"></use><use xlink:href="#BgenPttrnElement5" x="-52.47230529785156" y="62.19444274902344" transform="translate(0, 108) scale(1) translate(0, -108) rotate(97, 0, 108)"></use><use xlink:href="#BgenPttrnElement5" x="-9.972305297851562" y="134.19444274902344" transform="translate(42.5, 180) scale(1) translate(-42.5, -180) rotate(97, 42.5, 180)"></use><use xlink:href="#BgenPttrnElement5" x="-9.972305297851562" y="134.19444274902344" transform="translate(42.5, 180) scale(1) translate(-42.5, -180) rotate(97, 42.5, 180)"></use></g></g></pattern><symbol id="BgenPttrnElement5"><g class="color_6 fill_color_6" fill="#7e8bab"><path d="M55.853,44.60847091674805L55.853,51.08546829223633L62.337,51.09246826171875L62.337,53.08646774291992L53.852,53.08646774291992L53.852,44.60146713256836L55.853,44.60847091674805Z" transform="matrix(1,0,0,1,0,0)"></path><path d="M49.091,55.735469818115234L49.091,49.25846862792969L42.607,49.251468658447266L42.607,47.257469177246094L51.092,47.257469177246094L51.092,55.742469787597656L49.091,55.735469818115234Z" transform="matrix(1,0,0,1,0,0)"></path><path d="M61.543,66.17572021484375L55.933,62.93722915649414L52.685,68.54917907714844L50.958,67.55218505859375L55.201,60.20371627807617L62.549,64.44621276855469L61.543,66.17572021484375Z" transform="matrix(1,0,0,1,0,0)"></path><path d="M55.288,54.75567626953125L60.897,57.994178771972656L64.145,52.38222122192383L65.872,53.37922286987305L61.629,60.727691650390625L54.281,56.485191345214844L55.288,54.75567626953125Z" transform="matrix(1,0,0,1,0,0)"></path><path d="M40.02,60.319129943847656L45.629,57.08062744140625L42.393,51.461673736572266L44.12,50.46467208862305L48.363,57.813140869140625L41.015,62.055641174316406L40.02,60.319129943847656Z" transform="matrix(1,0,0,1,0,0)"></path><path d="M53.038,60.612178802490234L47.428,63.850677490234375L50.664,69.46963500976562L48.938,70.46662902832031L44.695,63.1181640625L52.043,58.87566375732422L53.038,60.612178802490234Z" transform="matrix(1,0,0,1,0,0)"></path><path d="M73.75,87.31977844238281L68.141,84.08128356933594L64.893,89.69309997558594L63.166,88.69609069824219L67.409,81.34786987304688L74.757,85.59036254882812L73.75,87.31977844238281Z" transform="matrix(1,0,0,1,0,0)"></path><path d="M67.495,75.90022277832031L73.104,79.13871765136719L76.352,73.52691650390625L78.079,74.52391052246094L73.837,81.87213134765625L66.489,77.629638671875L67.495,75.90022277832031Z" transform="matrix(1,0,0,1,0,0)"></path><path d="M52.228,81.46383666992188L57.837,78.22468566894531L54.601,72.60586547851562L56.328,71.60873413085938L60.57,78.95751953125L53.222,83.19981384277344L52.228,81.46383666992188Z" transform="matrix(1,0,0,1,0,0)"></path><path d="M65.245,81.75688171386719L59.636,84.99516296386719L62.872,90.61399841308594L61.145,91.61111450195312L56.903,84.26234436035156L64.251,80.02003479003906L65.245,81.75688171386719Z" transform="matrix(1,0,0,1,0,0)"></path><path d="M68.061,65.75267028808594L68.061,72.22946166992188L74.545,72.23648071289062L74.545,74.23060607910156L66.06,74.23092651367188L66.06,65.74610900878906L68.061,65.75267028808594Z" transform="matrix(1,0,0,1,0,0)"></path><path d="M61.298,76.88006591796875L61.299,70.40242004394531L54.814,70.39540100097656L54.814,68.40214538574219L63.299,68.40182495117188L63.3,76.88662719726562L61.298,76.88006591796875Z" transform="matrix(1,0,0,1,0,0)"></path><path d="M27.813,81.46371459960938L33.422,78.2252197265625L30.186,72.60639953613281L31.913,71.60940551757812L36.155,78.95762634277344L28.807,83.20013427734375L27.813,81.46371459960938Z" transform="matrix(1,0,0,1,0,0)"></path><path d="M40.83,81.75627136230469L35.221,84.99478149414062L38.457,90.61358642578125L36.73,91.61058044433594L32.487,84.26235961914062L39.835,80.01986694335938L40.83,81.75627136230469Z" transform="matrix(1,0,0,1,0,0)"></path><path d="M43.645,65.75239562988281L43.646,72.23005676269531L50.13,72.23692321777344L50.13,74.23104858398438L41.644,74.23074340820312L41.645,65.74594116210938L43.645,65.75239562988281Z" transform="matrix(1,0,0,1,0,0)"></path><path d="M36.883,76.87940979003906L36.883,70.40263366699219L30.399,70.395751953125L30.399,68.40162658691406L38.884,68.40194702148438L38.884,76.88674926757812L36.883,76.87940979003906Z" transform="matrix(1,0,0,1,0,0)"></path><path d="M49.335,87.32015991210938L43.726,84.08187866210938L40.478,89.69381713867188L38.751,88.69668579101562L42.993,81.34791564941406L50.341,85.5902099609375L49.335,87.32015991210938Z" transform="matrix(1,0,0,1,0,0)"></path><path d="M43.08,75.89971923828125L48.689,79.13887023925781L51.937,73.52693176269531L53.664,74.523193359375L49.421,81.87197875976562L42.073,77.62966918945312L43.08,75.89971923828125Z" transform="matrix(1,0,0,1,0,0)"></path><path d="M55.2,48.135093688964844L49.59,51.37359619140625L52.826,56.99240493774414L51.099,57.98940658569336L46.857,50.641178131103516L54.205,46.398677825927734L55.2,48.135093688964844Z" transform="matrix(1,0,0,1,0,0)"></path><path d="M42.182,47.842529296875L47.792,44.60403060913086L44.556,38.98522186279297L46.282,37.988224029541016L50.525,45.336448669433594L43.177,49.578948974609375L42.182,47.842529296875Z" transform="matrix(1,0,0,1,0,0)"></path><path d="M39.367,63.84640884399414L39.366,57.36875534057617L32.882,57.361881256103516L32.882,55.367759704589844L41.368,55.36806869506836L41.368,63.852874755859375L39.367,63.84640884399414Z" transform="matrix(1,0,0,1,0,0)"></path><path d="M46.129,52.71939468383789L46.129,59.19618225097656L52.613,59.20305633544922L52.613,61.197181701660156L44.128,61.196868896484375L44.128,52.71206283569336L46.129,52.71939468383789Z" transform="matrix(1,0,0,1,0,0)"></path><path d="M33.677,42.27864456176758L39.286,45.516929626464844L42.534,39.90499496459961L44.261,40.90211868286133L40.019,48.25090026855469L32.671,44.00859832763672L33.677,42.27864456176758Z" transform="matrix(1,0,0,1,0,0)"></path><path d="M39.932,53.69908905029297L34.323,50.45993423461914L31.075,56.07187271118164L29.348,55.07561111450195L33.591,47.726829528808594L40.939,51.96913528442383L39.932,53.69908905029297Z" transform="matrix(1,0,0,1,0,0)"></path><path d="M27.159,84.99000549316406L27.159,78.51322937011719L20.675,78.50628662109375L20.675,76.51216125488281L29.16,76.51258850097656L29.16,84.99739074707031L27.159,84.99000549316406Z" transform="matrix(1,0,0,1,0,0)"></path><path d="M33.921,73.86323547363281L33.921,80.34002685546875L40.405,80.34696960449219L40.405,82.34109497070312L31.92,82.34153747558594L31.92,73.85673522949219L33.921,73.86323547363281Z" transform="matrix(1,0,0,1,0,0)"></path><path d="M21.469,63.423439025878906L27.079,66.66140747070312L30.327,61.04952621459961L32.054,62.04658889770508L27.811,69.3946533203125L20.463,65.15225219726562L21.469,63.423439025878906Z" transform="matrix(1,0,0,1,0,0)"></path><path d="M27.724,74.84300231933594L22.115,71.6046142578125L18.867,77.21649169921875L17.14,76.21942138671875L21.383,68.87135314941406L28.731,73.11375427246094L27.724,74.84300231933594Z" transform="matrix(1,0,0,1,0,0)"></path><path d="M42.992,69.27963256835938L37.383,72.51803588867188L40.619,78.13685607910156L38.892,79.1339111328125L34.649,71.78584289550781L41.997,67.54344177246094L42.992,69.27963256835938Z" transform="matrix(1,0,0,1,0,0)"></path><path d="M29.974,68.98640441894531L35.584,65.74844360351562L32.348,60.128761291503906L34.074,59.13213348388672L38.317,66.48019409179688L30.969,70.72346496582031L29.974,68.98640441894531Z" transform="matrix(1,0,0,1,0,0)"></path><path d="M9.262,42.27936553955078L14.871,45.51765060424805L18.119,39.90578842163086L19.846,40.902915954589844L15.603,48.250709533691406L8.255,44.00840377807617L9.262,42.27936553955078Z" transform="matrix(1,0,0,1,0,0)"></path><path d="M15.517,53.698699951171875L9.908,50.46041488647461L6.66,56.0722770690918L4.933,55.07514953613281L9.175,47.72649002075195L16.523,51.96879577636719L15.517,53.698699951171875Z" transform="matrix(1,0,0,1,0,0)"></path><path d="M30.784,48.13462448120117L25.175,51.37431716918945L28.411,56.99306106567383L26.684,57.9901237487793L22.441,50.64087677001953L29.79,46.39934158325195L30.784,48.13462448120117Z" transform="matrix(1,0,0,1,0,0)"></path><path d="M17.767,47.84206771850586L23.376,44.60367202758789L20.14,38.984928131103516L21.867,37.98786544799805L26.109,45.336246490478516L18.761,49.578651428222656L17.767,47.84206771850586Z" transform="matrix(1,0,0,1,0,0)"></path><path d="M14.951,63.84619140625L14.951,57.369510650634766L8.467,57.36262893676758L8.467,55.368438720703125L16.952,55.36772918701172L16.952,63.85243606567383L14.951,63.84619140625Z" transform="matrix(1,0,0,1,0,0)"></path><path d="M21.714,52.71897888183594L21.713,59.19609069824219L28.197,59.20297622680664L28.198,61.19673156738281L19.712,61.19657516479492L19.712,52.71186828613281L21.714,52.71897888183594Z" transform="matrix(1,0,0,1,0,0)"></path><path d="M51.818,49.33218765258789L46.209,46.09368896484375L42.961,51.70549774169922L41.234,50.70849609375L45.477,43.36027145385742L52.825,47.6027717590332L51.818,49.33218765258789Z" transform="matrix(1,0,0,1,0,0)"></path><path d="M45.563,37.91262435913086L51.172,41.151123046875L54.421,35.53931427001953L56.147,36.53631591796875L51.905,43.88454055786133L44.557,39.64204025268555L45.563,37.91262435913086Z" transform="matrix(1,0,0,1,0,0)"></path><path d="M30.296,43.47624206542969L35.905,40.23708724975586L32.669,34.61825942993164L34.396,33.62113571166992L38.639,40.969913482666016L31.291,45.212223052978516L30.296,43.47624206542969Z" transform="matrix(1,0,0,1,0,0)"></path><path d="M43.313,43.76927947998047L37.704,47.007564544677734L40.94,52.62639236450195L39.213,53.62351989746094L34.971,46.27473831176758L42.319,42.032432556152344L43.313,43.76927947998047Z" transform="matrix(1,0,0,1,0,0)"></path><path d="M46.129,27.76507568359375L46.129,34.24186325073242L52.613,34.24888229370117L52.613,36.24300765991211L44.128,36.24332046508789L44.128,27.758516311645508L46.129,27.76507568359375Z" transform="matrix(1,0,0,1,0,0)"></path><path d="M39.366,38.89247131347656L39.367,32.414817810058594L32.883,32.407798767089844L32.882,30.414539337158203L41.368,30.414226531982422L41.368,38.89903259277344L39.366,38.89247131347656Z" transform="matrix(1,0,0,1,0,0)"></path><path d="M5.881,43.47578430175781L11.49,40.23749923706055L8.254,34.618743896484375L9.981,33.62161636352539L14.223,40.97027587890625L6.875,45.212581634521484L5.881,43.47578430175781Z" transform="matrix(1,0,0,1,0,0)"></path><path d="M18.898,43.76857376098633L13.289,47.00686264038086L16.525,52.62561798095703L14.798,53.622745513916016L10.555,46.27495574951172L17.903,42.032649993896484L18.898,43.76857376098633Z" transform="matrix(1,0,0,1,0,0)"></path><path d="M21.713,27.76515769958496L21.714,34.242271423339844L28.198,34.24922561645508L28.198,36.243412017822266L19.713,36.242706298828125L19.713,27.757997512817383L21.713,27.76515769958496Z" transform="matrix(1,0,0,1,0,0)"></path><path d="M14.951,38.891693115234375L14.951,32.41501235961914L8.467,32.408058166503906L8.467,30.413867950439453L16.952,30.41457748413086L16.952,38.89928436279297L14.951,38.891693115234375Z" transform="matrix(1,0,0,1,0,0)"></path><path d="M27.403,49.332523345947266L21.794,46.0941276550293L18.546,51.705928802490234L16.819,50.708866119384766L21.061,43.36048126220703L28.409,47.60288619995117L27.403,49.332523345947266Z" transform="matrix(1,0,0,1,0,0)"></path><path d="M21.148,37.91189193725586L26.757,41.15158462524414L30.006,35.53892135620117L31.732,36.535552978515625L27.49,43.883934020996094L20.141,39.64239501953125L21.148,37.91189193725586Z" transform="matrix(1,0,0,1,0,0)"></path><path d="M33.921,6.62121057510376L33.921,13.097996711730957L40.405,13.10494327545166L40.405,15.099067687988281L31.92,15.09863567352295L31.92,6.613830089569092L33.921,6.62121057510376Z" transform="matrix(1,0,0,1,0,0)"></path><path d="M27.159,17.747982025146484L27.159,11.271194458007812L20.675,11.26424789428711L20.675,9.270123481750488L29.16,9.269689559936523L29.16,17.75449562072754L27.159,17.747982025146484Z" transform="matrix(1,0,0,1,0,0)"></path><path d="M39.611,28.187782287597656L34.001,24.949819564819336L30.753,30.561695098876953L29.026,29.564632415771484L33.269,22.215694427490234L40.617,26.45896339416504L39.611,28.187782287597656Z" transform="matrix(1,0,0,1,0,0)"></path><path d="M33.356,16.76820945739746L38.965,20.006603240966797L42.213,14.394729614257812L43.94,15.391794204711914L39.697,22.739864349365234L32.349,18.497461318969727L33.356,16.76820945739746Z" transform="matrix(1,0,0,1,0,0)"></path><path d="M18.088,22.331584930419922L23.697,19.093191146850586L20.461,13.474371910095215L22.188,12.477310180664062L26.431,19.82537841796875L19.083,24.067781448364258L18.088,22.331584930419922Z" transform="matrix(1,0,0,1,0,0)"></path><path d="M31.106,22.62481689453125L25.496,25.86277961730957L28.732,31.481595993041992L27.006,32.47909164428711L22.763,25.130155563354492L30.111,20.887752532958984L31.106,22.62481689453125Z" transform="matrix(1,0,0,1,0,0)"></path><path d="M49.091,47.002655029296875L49.091,40.52565383911133L42.607,40.518653869628906L42.607,38.524654388427734L51.092,38.524654388427734L51.092,47.0096549987793L49.091,47.002655029296875Z" transform="matrix(1,0,0,1,0,0)"></path><path d="M55.853,35.87565231323242L55.853,42.35265350341797L62.337,42.35965347290039L62.337,44.35365295410156L53.852,44.35365295410156L53.852,35.86865234375L55.853,35.87565231323242Z" transform="matrix(1,0,0,1,0,0)"></path><path d="M43.401,25.435394287109375L49.011,28.673892974853516L52.259,23.061939239501953L53.986,24.058937072753906L49.743,31.407405853271484L42.395,27.16490936279297L43.401,25.435394287109375Z" transform="matrix(1,0,0,1,0,0)"></path><path d="M49.656,36.855445861816406L44.047,33.616943359375L40.799,39.22890090942383L39.072,38.23189926147461L43.315,30.88343048095703L50.663,35.12593078613281L49.656,36.855445861816406Z" transform="matrix(1,0,0,1,0,0)"></path><path d="M64.924,31.2919921875L59.315,34.530494689941406L62.551,40.14944839477539L60.824,41.14645004272461L56.581,33.79798126220703L63.929,29.55548095703125L64.924,31.2919921875Z" transform="matrix(1,0,0,1,0,0)"></path><path d="M51.906,30.998943328857422L57.516,27.76044464111328L54.28,22.14148712158203L56.006,21.144489288330078L60.249,28.492958068847656L52.901,32.73545837402344L51.906,30.998943328857422Z" transform="matrix(1,0,0,1,0,0)"></path><path d="M31.194,4.2913360595703125L36.803,7.529834747314453L40.051,1.9180259704589844L41.778,2.9150238037109375L37.535,10.263252258300781L30.187,6.020751953125L31.194,4.2913360595703125Z" transform="matrix(1,0,0,1,0,0)"></path><path d="M37.449,15.710895538330078L31.84,12.472396850585938L28.592,18.084205627441406L26.865,17.087207794189453L31.107,9.738983154296875L38.455,13.981483459472656L37.449,15.710895538330078Z" transform="matrix(1,0,0,1,0,0)"></path><path d="M52.716,10.14727783203125L47.107,13.386432647705078L50.343,19.005260467529297L48.616,20.002384185791016L44.374,12.653606414794922L51.722,8.411300659179688L52.716,10.14727783203125Z" transform="matrix(1,0,0,1,0,0)"></path><path d="M39.699,9.854244232177734L45.308,6.615955352783203L42.072,0.9971275329589844L43.799,0L48.041,7.348781585693359L40.693,11.591087341308594L39.699,9.854244232177734Z" transform="matrix(1,0,0,1,0,0)"></path><path d="M36.883,25.858444213867188L36.883,19.381656646728516L30.399,19.374637603759766L30.399,17.380512237548828L38.884,17.380199432373047L38.884,25.865005493164062L36.883,25.858444213867188Z" transform="matrix(1,0,0,1,0,0)"></path><path d="M43.646,14.731048583984375L43.645,21.208702087402344L50.13,21.215721130371094L50.13,23.208980560302734L41.645,23.209293365478516L41.644,14.7244873046875L43.646,14.731048583984375Z" transform="matrix(1,0,0,1,0,0)"></path><path d="M77.131,10.147407531738281L71.522,13.385906219482422L74.758,19.004714965820312L73.031,20.001712799072266L68.789,12.653488159179688L76.137,8.410987854003906L77.131,10.147407531738281Z" transform="matrix(1,0,0,1,0,0)"></path><path d="M64.114,9.854843139648438L69.723,6.616340637207031L66.487,0.9975318908691406L68.214,0.0005340576171875L72.457,7.348758697509766L65.109,11.591259002685547L64.114,9.854843139648438Z" transform="matrix(1,0,0,1,0,0)"></path><path d="M61.299,25.858718872070312L61.298,19.381065368652344L54.814,19.374195098876953L54.814,17.380069732666016L63.3,17.38037872314453L63.299,25.865184783935547L61.299,25.858718872070312Z" transform="matrix(1,0,0,1,0,0)"></path><path d="M68.061,14.731704711914062L68.061,21.208492279052734L74.545,21.215362548828125L74.545,23.209491729736328L66.06,23.209178924560547L66.06,14.724372863769531L68.061,14.731704711914062Z" transform="matrix(1,0,0,1,0,0)"></path><path d="M55.609,4.29095458984375L61.218,7.529243469238281L64.466,1.9173049926757812L66.193,2.9144325256347656L61.951,10.26321029663086L54.603,6.020908355712891L55.609,4.29095458984375Z" transform="matrix(1,0,0,1,0,0)"></path><path d="M61.864,15.71139907836914L56.255,12.472248077392578L53.007,18.084182739257812L51.28,17.087921142578125L55.523,9.739143371582031L62.871,13.9814453125L61.864,15.71139907836914Z" transform="matrix(1,0,0,1,0,0)"></path><path d="M49.745,43.47602844238281L55.354,40.23752975463867L52.118,34.618717193603516L53.845,33.62171936035156L58.088,40.96994400024414L50.74,45.21244430541992L49.745,43.47602844238281Z" transform="matrix(1,0,0,1,0,0)"></path><path d="M62.762,43.768592834472656L57.153,47.00709533691406L60.389,52.62590026855469L58.662,53.622901916503906L54.42,46.27467727661133L61.768,42.03217697143555L62.762,43.768592834472656Z" transform="matrix(1,0,0,1,0,0)"></path><path d="M65.578,27.76471519470215L65.578,34.242366790771484L72.062,34.24924087524414L72.062,36.24336624145508L63.577,36.2430534362793L63.577,27.758251190185547L65.578,27.76471519470215Z" transform="matrix(1,0,0,1,0,0)"></path><path d="M58.815,38.891727447509766L58.815,32.41494369506836L52.331,32.4080696105957L52.331,30.413942337036133L60.817,30.41425323486328L60.817,38.8990592956543L58.815,38.891727447509766Z" transform="matrix(1,0,0,1,0,0)"></path><path d="M71.267,49.33247756958008L65.658,46.09419250488281L62.41,51.70613098144531L60.683,50.70900344848633L64.926,43.36022186279297L72.274,47.6025276184082L71.267,49.33247756958008Z" transform="matrix(1,0,0,1,0,0)"></path><path d="M65.012,37.91203689575195L70.622,41.151187896728516L73.87,35.53925323486328L75.596,36.53551483154297L71.354,43.88429260253906L64.006,39.64198684692383L65.012,37.91203689575195Z" transform="matrix(1,0,0,1,0,0)"></path><path d="M77.786,6.621113300323486L77.786,13.097900390625L84.27,13.104844093322754L84.27,15.098970413208008L75.784,15.098538398742676L75.784,6.613733768463135L77.786,6.621113300323486Z" transform="matrix(1,0,0,1,0,0)"></path><path d="M71.024,17.747882843017578L71.024,11.271096229553223L64.54,11.264148712158203L64.54,9.270026206970215L73.024,9.269591331481934L73.024,17.754396438598633L71.024,17.747882843017578Z" transform="matrix(1,0,0,1,0,0)"></path><path d="M83.475,28.18768310546875L77.866,24.949722290039062L74.618,30.561595916748047L72.89,29.564533233642578L77.134,22.21646499633789L84.482,26.458866119384766L83.475,28.18768310546875Z" transform="matrix(1,0,0,1,0,0)"></path><path d="M77.221,16.76811408996582L82.829,20.00650405883789L86.078,14.394632339477539L87.805,15.391695976257324L83.561,22.73976707458496L76.213,18.497365951538086L77.221,16.76811408996582Z" transform="matrix(1,0,0,1,0,0)"></path><path d="M61.952,22.331485748291016L67.562,19.09309196472168L64.326,13.474271774291992L66.053,12.477209091186523L70.295,19.825279235839844L62.947,24.06768226623535L61.952,22.331485748291016Z" transform="matrix(1,0,0,1,0,0)"></path><path d="M74.971,22.624717712402344L69.36,25.86267852783203L72.597,31.482362747192383L70.87,32.4789924621582L66.628,25.130924224853516L73.975,20.88765525817871L74.971,22.624717712402344Z" transform="matrix(1,0,0,1,0,0)"></path><path d="M95.683,49.33176040649414L90.074,46.09347152709961L86.826,51.7053337097168L85.099,50.70820999145508L89.341,43.360416412353516L96.689,47.60272216796875L95.683,49.33176040649414Z" transform="matrix(1,0,0,1,0,0)"></path><path d="M89.428,37.91242599487305L95.037,41.15071105957031L98.285,35.53884506225586L100.012,36.535972595214844L95.769,43.8846321105957L88.421,39.64232635498047L89.428,37.91242599487305Z" transform="matrix(1,0,0,1,0,0)"></path><path d="M74.16,43.47650146484375L79.77,40.23680877685547L76.534,34.61806106567383L78.26,33.62099838256836L82.503,40.970245361328125L75.155,45.21178436279297L74.16,43.47650146484375Z" transform="matrix(1,0,0,1,0,0)"></path><path d="M87.178,43.76905822753906L81.568,47.007450103759766L84.805,52.62619400024414L83.078,53.623260498046875L78.835,46.27487564086914L86.183,42.032474517822266L87.178,43.76905822753906Z" transform="matrix(1,0,0,1,0,0)"></path><path d="M89.993,27.76493263244629L89.994,34.241615295410156L96.478,34.248497009277344L96.478,36.2426872253418L87.992,36.2433967590332L87.992,27.758689880371094L89.993,27.76493263244629Z" transform="matrix(1,0,0,1,0,0)"></path><path d="M83.231,38.892147064208984L83.231,32.41503143310547L76.747,32.40814971923828L76.746,30.414392471313477L85.232,30.41455078125L85.232,38.89925765991211L83.231,38.892147064208984Z" transform="matrix(1,0,0,1,0,0)"></path><path d="M53.126,42.27893829345703L58.735,45.51743698120117L61.983,39.9056282043457L63.71,40.902626037597656L59.468,48.2508544921875L52.12,44.00835418701172L53.126,42.27893829345703Z" transform="matrix(1,0,0,1,0,0)"></path><path d="M59.381,53.69850158691406L53.772,50.46000289916992L50.524,56.07181167602539L48.797,55.07481002807617L53.04,47.726585388183594L60.388,51.96908187866211L59.381,53.69850158691406Z" transform="matrix(1,0,0,1,0,0)"></path><path d="M74.649,48.134883880615234L69.039,51.3740348815918L72.275,56.992862701416016L70.548,57.989990234375L66.306,50.64120864868164L73.654,46.398902893066406L74.649,48.134883880615234Z" transform="matrix(1,0,0,1,0,0)"></path><path d="M61.631,47.84184265136719L67.24,44.60356140136719L64.004,38.9847297668457L65.731,37.98760223388672L69.974,45.33638381958008L62.626,49.57868957519531L61.631,47.84184265136719Z" transform="matrix(1,0,0,1,0,0)"></path><path d="M58.815,63.846046447753906L58.815,57.3692626953125L52.331,57.362239837646484L52.331,55.36811447143555L60.817,55.367801666259766L60.817,63.85260772705078L58.815,63.846046447753906Z" transform="matrix(1,0,0,1,0,0)"></path><path d="M65.578,52.71865463256836L65.578,59.19630432128906L72.062,59.20332717895508L72.062,61.19658660888672L63.577,61.196895599365234L63.577,52.71208953857422L65.578,52.71865463256836Z" transform="matrix(1,0,0,1,0,0)"></path><path d="M99.064,48.135337829589844L93.455,51.373626708984375L96.691,56.99237823486328L94.964,57.989505767822266L90.721,50.640846252441406L98.069,46.39854431152344L99.064,48.135337829589844Z" transform="matrix(1,0,0,1,0,0)"></path><path d="M86.047,47.84254837036133L91.656,44.6042594909668L88.42,38.985504150390625L90.147,37.988380432128906L94.389,45.3361701965332L87.041,49.57847213745117L86.047,47.84254837036133Z" transform="matrix(1,0,0,1,0,0)"></path><path d="M83.231,63.84596633911133L83.231,57.36885070800781L76.747,57.36189651489258L76.747,55.36771011352539L85.232,55.3684196472168L85.232,63.853126525878906L83.231,63.84596633911133Z" transform="matrix(1,0,0,1,0,0)"></path><path d="M89.994,52.71943283081055L89.994,59.196109771728516L96.478,59.203067779541016L96.478,61.19725799560547L87.992,61.1965446472168L87.992,52.71183776855469L89.994,52.71943283081055Z" transform="matrix(1,0,0,1,0,0)"></path><path d="M77.542,42.278602600097656L83.151,45.51699447631836L86.399,39.90519714355469L88.126,40.902259826660156L83.883,48.250640869140625L76.535,44.00823974609375L77.542,42.278602600097656Z" transform="matrix(1,0,0,1,0,0)"></path><path d="M83.797,53.6992301940918L78.187,50.459537506103516L74.939,56.072200775146484L73.213,55.0755729675293L77.455,47.72719192504883L84.803,51.96873092651367L83.797,53.6992301940918Z" transform="matrix(1,0,0,1,0,0)"></path><path d="M71.024,84.98991394042969L71.024,78.51312255859375L64.54,78.50617980957031L64.54,76.51205444335938L73.024,76.51248168945312L73.024,84.99729919433594L71.024,84.98991394042969Z" transform="matrix(1,0,0,1,0,0)"></path><path d="M77.786,73.86314392089844L77.786,80.33993530273438L84.27,80.34687805175781L84.27,82.34100341796875L75.784,82.3414306640625L75.784,73.85662841796875L77.786,73.86314392089844Z" transform="matrix(1,0,0,1,0,0)"></path><path d="M65.333,63.423343658447266L70.944,66.66130065917969L74.192,61.0494270324707L75.919,62.04648971557617L71.675,69.39543151855469L64.328,65.15216064453125L65.333,63.423343658447266Z" transform="matrix(1,0,0,1,0,0)"></path><path d="M71.589,74.84291076660156L65.98,71.60452270507812L62.732,77.21640014648438L61.005,76.21932983398438L65.247,68.87126159667969L72.595,73.11366271972656L71.589,74.84291076660156Z" transform="matrix(1,0,0,1,0,0)"></path><path d="M86.857,69.279541015625L81.248,72.51792907714844L84.484,78.13674926757812L82.757,79.13381958007812L78.513,71.78575134277344L85.861,67.5433349609375L86.857,69.279541015625Z" transform="matrix(1,0,0,1,0,0)"></path><path d="M73.839,68.98631286621094L79.448,65.74835205078125L76.212,60.1295280456543L77.939,59.13203430175781L82.181,66.48097229003906L74.833,70.72337341308594L73.839,68.98631286621094Z" transform="matrix(1,0,0,1,0,0)"></path></g></symbol></defs><rect width="100%" height="100%" id="BgenPttrnRctLayer1" fill="url(&quot;#BgenPttrnLayer1&quot;)"></rect><rect width="100%" height="100%" id="BgenPttrnRctLayer2" fill="url(&quot;#BgenPttrnLayer2&quot;)"></rect></svg>