<svg xmlns="http://www.w3.org/2000/svg" version="1.1" xmlns:xlink="http://www.w3.org/1999/xlink" xmlns:svgjs="http://svgjs.dev/svgjs" id="BgenPttrnSvgRootPreview" width="100%" height="100%"><defs><pattern x="0" y="0" width="1" height="1" patternUnits="userSpaceOnUse" id="BgenPttrnLayer1"><g id="PatternRootContent1"><g id="BgenPttrnLayer1background"><rect width="1" height="1" id="BgenPttrnBackground1" class="color_1 fill_color_1" fill="#2e343b"></rect></g></g></pattern><pattern x="0" y="0" width="56" height="96" patternUnits="userSpaceOnUse" id="BgenPttrnLayer2" patternTransform="matrix(0.4,0,0,0.4,0,0)"><g id="PatternRootContent2"><g id="BgenPttrnLayer2Element3"><use xlink:href="#BgenPttrnElement3" x="17.89007568359375" y="-57.00416564941406" transform="translate(56, -24) scale(1) translate(-56, 24) rotate(90, 56, -24)"></use><use xlink:href="#BgenPttrnElement3" x="-38.10992431640625" y="-57.00416564941406" transform="translate(0, -24) scale(1) translate(0, 24) rotate(90, 0, -24)"></use><use xlink:href="#BgenPttrnElement3" x="-10.10992431640625" y="-9.004165649414062" transform="translate(28, 24) scale(1) translate(-28, -24) rotate(90, 28, 24)"></use><use xlink:href="#BgenPttrnElement3" x="-66.10992431640625" y="-9.004165649414062" transform="translate(-28, 24) scale(1) translate(28, -24) rotate(90, -28, 24)"></use><use xlink:href="#BgenPttrnElement3" x="45.89007568359375" y="-9.004165649414062" transform="translate(84, 24) scale(1) translate(-84, -24) rotate(90, 84, 24)"></use><use xlink:href="#BgenPttrnElement3" x="17.89007568359375" y="38.99583435058594" transform="translate(56, 72) scale(1) translate(-56, -72) rotate(90, 56, 72)"></use><use xlink:href="#BgenPttrnElement3" x="-38.10992431640625" y="38.99583435058594" transform="translate(0, 72) scale(1) translate(0, -72) rotate(90, 0, 72)"></use><use xlink:href="#BgenPttrnElement3" x="-10.10992431640625" y="86.99583435058594" transform="translate(28, 120) scale(1) translate(-28, -120) rotate(90, 28, 120)"></use><use xlink:href="#BgenPttrnElement3" x="-10.10992431640625" y="86.99583435058594" transform="translate(28, 120) scale(1) translate(-28, -120) rotate(90, 28, 120)"></use></g></g></pattern><symbol id="BgenPttrnElement3"><g class="color_4 fill_color_4" fill="#33486e"><path d="M51.11,0L51.11,35L41.11,35L41.11,0L51.11,0Z" transform="matrix(1,0,0,1,0,0)"></path><path d="M25.11,35L25.11,0L35.11,0L35.11,35L25.11,35Z" transform="matrix(1,0,0,1,0,0)"></path><path d="M63.22,66.00833129882812L32.909,48.508331298828125L37.909,39.84807586669922L68.22,57.34807586669922L63.22,66.00833129882812Z" transform="matrix(1,0,0,1,0,0)"></path><path d="M45.909,25.991668701171875L76.22,43.491668701171875L71.22,52.15192413330078L40.909,34.65192413330078L45.909,25.991668701171875Z" transform="matrix(1,0,0,1,0,0)"></path><path d="M0,43.491668701171875L30.311,25.991668701171875L35.311,34.65192413330078L5,52.15192413330078L0,43.491668701171875Z" transform="matrix(1,0,0,1,0,0)"></path><path d="M43.311,48.508331298828125L13,66.00833129882812L8,57.34807586669922L38.311,39.84807586669922L43.311,48.508331298828125Z" transform="matrix(1,0,0,1,0,0)"></path></g></symbol></defs><rect width="100%" height="100%" id="BgenPttrnRctLayer1" fill="url(&quot;#BgenPttrnLayer1&quot;)"></rect><rect width="100%" height="100%" id="BgenPttrnRctLayer2" fill="url(&quot;#BgenPttrnLayer2&quot;)"></rect></svg>